<?xml version="1.0" encoding="UTF-8"?><svg xmlns="http://www.w3.org/2000/svg" xmlns:xlink="http://www.w3.org/1999/xlink" height="232.1" preserveAspectRatio="xMidYMid meet" version="1.0" viewBox="10.7 30.4 389.7 232.1" width="389.7" zoomAndPan="magnify"><g fill-rule="evenodd"><g id="change1_1"><path d="M 79.714844 141.617188 C 78.136719 148.25 79.714844 194.390625 79.714844 194.390625 C 190.960938 135.609375 333.019531 135.371094 333.019531 135.371094 C 333.019531 135.371094 326.621094 109.0625 304.8125 69.71875 C 283.007812 30.367188 232.992188 33.449219 191.039062 41.035156 C 149.085938 48.621094 89.472656 86.070312 89.472656 86.070312 C 66.128906 90.8125 77.382812 105.859375 79.011719 109.652344 C 80.640625 113.449219 81.296875 134.976562 79.714844 141.617188" fill="#100f0d"/></g><g id="change2_1"><path d="M 399.980469 151.136719 C 399.980469 151.136719 385.28125 130.632812 333.019531 135.371094 C 333.019531 135.371094 190.960938 135.609375 79.714844 194.390625 C 79.714844 194.390625 10.660156 226.984375 27.964844 244.167969 C 27.964844 244.167969 21.445312 234.332031 41 222.597656 C 60.554688 210.863281 104.40625 192.613281 104.40625 192.613281 C 104.40625 192.613281 200.519531 156.703125 240.816406 152.675781 C 281.109375 148.648438 384.453125 134.660156 397.964844 157.179688 C 397.964844 157.179688 400.335938 156.230469 399.980469 151.136719" fill="#d3d2d2"/></g><g id="change1_2"><path d="M 240.816406 152.675781 C 200.519531 156.703125 104.40625 192.613281 104.40625 192.613281 C 104.40625 192.613281 60.554688 210.863281 41 222.597656 C 22.066406 233.957031 27.578125 243.539062 27.945312 244.136719 L 27.964844 244.167969 C 49.058594 262.417969 95.753906 260.285156 95.753906 260.285156 C 77.503906 246.222656 97.414062 231.367188 97.414062 231.367188 C 169.472656 185.226562 267.285156 179.222656 296.042969 177.324219 C 324.804688 175.429688 340.605469 181.121094 347.085938 186.964844 C 353.5625 192.8125 345.1875 206.714844 345.1875 206.714844 C 391.804688 198.027344 397.964844 157.179688 397.964844 157.179688 C 384.453125 134.660156 281.109375 148.648438 240.816406 152.675781" fill="#100f0d"/></g></g></svg>